<?xml version="1.0" encoding="UTF-8" standalone="no"?>
<!-- Created with Inkscape (http://www.inkscape.org/) -->

<svg
   version="1.1"
   id="svg1"
   width="800"
   height="800"
   viewBox="0 0 800 800"
   sodipodi:docname="sea-mines.svg"
   inkscape:version="1.3.2 (091e20e, 2023-11-25, custom)"
   xmlns:inkscape="http://www.inkscape.org/namespaces/inkscape"
   xmlns:sodipodi="http://sodipodi.sourceforge.net/DTD/sodipodi-0.dtd"
   xmlns="http://www.w3.org/2000/svg"
   xmlns:svg="http://www.w3.org/2000/svg">
  <defs
     id="defs1">
    <clipPath
       clipPathUnits="userSpaceOnUse"
       id="clipPath4">
      <path
         d="M 0,600 H 600 V 0 H 0 Z"
         transform="translate(-300.43801,-200.47171)"
         id="path4" />
    </clipPath>
    <clipPath
       clipPathUnits="userSpaceOnUse"
       id="clipPath6">
      <path
         d="M 0,600 H 600 V 0 H 0 Z"
         transform="translate(-392.09671,-192.01071)"
         id="path6" />
    </clipPath>
    <clipPath
       clipPathUnits="userSpaceOnUse"
       id="clipPath8">
      <path
         d="M 0,600 H 600 V 0 H 0 Z"
         transform="translate(-208.7803,-192.01071)"
         id="path8" />
    </clipPath>
    <clipPath
       clipPathUnits="userSpaceOnUse"
       id="clipPath10">
      <path
         d="M 0,600 H 600 V 0 H 0 Z"
         transform="translate(-160.0566,-325.97751)"
         id="path10" />
    </clipPath>
    <clipPath
       clipPathUnits="userSpaceOnUse"
       id="clipPath12">
      <path
         d="M 0,600 H 600 V 0 H 0 Z"
         transform="translate(-300.43801,-415.31741)"
         id="path12" />
    </clipPath>
    <clipPath
       clipPathUnits="userSpaceOnUse"
       id="clipPath14">
      <path
         d="M 0,600 H 600 V 0 H 0 Z"
         transform="translate(-300.43801,-406.44141)"
         id="path14" />
    </clipPath>
    <clipPath
       clipPathUnits="userSpaceOnUse"
       id="clipPath16">
      <path
         d="M 0,600 H 600 V 0 H 0 Z"
         transform="translate(-237.93651,-363.69041)"
         id="path16" />
    </clipPath>
    <clipPath
       clipPathUnits="userSpaceOnUse"
       id="clipPath18">
      <path
         d="M 0,600 H 600 V 0 H 0 Z"
         transform="translate(-226.50241,-227.25391)"
         id="path18" />
    </clipPath>
    <clipPath
       clipPathUnits="userSpaceOnUse"
       id="clipPath20">
      <path
         d="M 0,600 H 600 V 0 H 0 Z"
         transform="translate(-300.43801,-148.68951)"
         id="path20" />
    </clipPath>
    <clipPath
       clipPathUnits="userSpaceOnUse"
       id="clipPath22">
      <path
         d="M 0,600 H 600 V 0 H 0 Z"
         transform="translate(-300.43801,-177.9424)"
         id="path22" />
    </clipPath>
    <clipPath
       clipPathUnits="userSpaceOnUse"
       id="clipPath24">
      <path
         d="M 0,600 H 600 V 0 H 0 Z"
         transform="translate(-300.43801,-107.2822)"
         id="path24" />
    </clipPath>
    <clipPath
       clipPathUnits="userSpaceOnUse"
       id="clipPath26">
      <path
         d="M 0,600 H 600 V 0 H 0 Z"
         transform="translate(-300.43801,-135.15141)"
         id="path26" />
    </clipPath>
    <clipPath
       clipPathUnits="userSpaceOnUse"
       id="clipPath28">
      <path
         d="M 0,600 H 600 V 0 H 0 Z"
         transform="translate(-300.43801,-63.046899)"
         id="path28" />
    </clipPath>
    <clipPath
       clipPathUnits="userSpaceOnUse"
       id="clipPath30">
      <path
         d="M 0,600 H 600 V 0 H 0 Z"
         transform="translate(-300.43801,-92.298805)"
         id="path30" />
    </clipPath>
    <clipPath
       clipPathUnits="userSpaceOnUse"
       id="clipPath32">
      <path
         d="M 0,600 H 600 V 0 H 0 Z"
         transform="translate(-300.43801,-20.255903)"
         id="path32" />
    </clipPath>
    <clipPath
       clipPathUnits="userSpaceOnUse"
       id="clipPath34">
      <path
         d="M 0,600 H 600 V 0 H 0 Z"
         transform="translate(-300.43801,-49.508799)"
         id="path34" />
    </clipPath>
    <clipPath
       clipPathUnits="userSpaceOnUse"
       id="clipPath36">
      <path
         d="M 0,600 H 600 V 0 H 0 Z"
         transform="translate(-110.4316,-111.6406)"
         id="path36" />
    </clipPath>
    <clipPath
       clipPathUnits="userSpaceOnUse"
       id="clipPath38">
      <path
         d="M 0,600 H 600 V 0 H 0 Z"
         transform="translate(-162.6826,-106.8184)"
         id="path38" />
    </clipPath>
    <clipPath
       clipPathUnits="userSpaceOnUse"
       id="clipPath40">
      <path
         d="M 0,600 H 600 V 0 H 0 Z"
         transform="translate(-58.179701,-106.8184)"
         id="path40" />
    </clipPath>
    <clipPath
       clipPathUnits="userSpaceOnUse"
       id="clipPath42">
      <path
         d="M 0,600 H 600 V 0 H 0 Z"
         transform="translate(-30.403801,-183.1885)"
         id="path42" />
    </clipPath>
    <clipPath
       clipPathUnits="userSpaceOnUse"
       id="clipPath44">
      <path
         d="M 0,600 H 600 V 0 H 0 Z"
         transform="translate(-110.4316,-234.11821)"
         id="path44" />
    </clipPath>
    <clipPath
       clipPathUnits="userSpaceOnUse"
       id="clipPath46">
      <path
         d="M 0,600 H 600 V 0 H 0 Z"
         transform="translate(-110.4316,-229.05961)"
         id="path46" />
    </clipPath>
    <clipPath
       clipPathUnits="userSpaceOnUse"
       id="clipPath48">
      <path
         d="M 0,600 H 600 V 0 H 0 Z"
         transform="translate(-74.800802,-204.68851)"
         id="path48" />
    </clipPath>
    <clipPath
       clipPathUnits="userSpaceOnUse"
       id="clipPath50">
      <path
         d="M 0,600 H 600 V 0 H 0 Z"
         transform="translate(-68.282201,-126.9082)"
         id="path50" />
    </clipPath>
    <clipPath
       clipPathUnits="userSpaceOnUse"
       id="clipPath52">
      <path
         d="M 0,600 H 600 V 0 H 0 Z"
         transform="translate(-110.4316,-82.1221)"
         id="path52" />
    </clipPath>
    <clipPath
       clipPathUnits="userSpaceOnUse"
       id="clipPath54">
      <path
         d="M 0,600 H 600 V 0 H 0 Z"
         transform="translate(-110.4316,-98.7979)"
         id="path54" />
    </clipPath>
    <clipPath
       clipPathUnits="userSpaceOnUse"
       id="clipPath56">
      <path
         d="M 0,600 H 600 V 0 H 0 Z"
         transform="translate(-110.4316,-57.727501)"
         id="path56" />
    </clipPath>
    <clipPath
       clipPathUnits="userSpaceOnUse"
       id="clipPath58">
      <path
         d="M 0,600 H 600 V 0 H 0 Z"
         transform="translate(-110.4316,-74.403302)"
         id="path58" />
    </clipPath>
    <clipPath
       clipPathUnits="userSpaceOnUse"
       id="clipPath60">
      <path
         d="M 0,600 H 600 V 0 H 0 Z"
         transform="translate(-110.4316,-33.299798)"
         id="path60" />
    </clipPath>
    <clipPath
       clipPathUnits="userSpaceOnUse"
       id="clipPath62">
      <path
         d="M 0,600 H 600 V 0 H 0 Z"
         transform="translate(-110.4316,-49.975599)"
         id="path62" />
    </clipPath>
    <clipPath
       clipPathUnits="userSpaceOnUse"
       id="clipPath64">
      <path
         d="M 0,600 H 600 V 0 H 0 Z"
         transform="translate(-110.4316,-13.330103)"
         id="path64" />
    </clipPath>
    <clipPath
       clipPathUnits="userSpaceOnUse"
       id="clipPath66">
      <path
         d="M 0,600 H 600 V 0 H 0 Z"
         transform="translate(-110.4316,-25.581998)"
         id="path66" />
    </clipPath>
    <clipPath
       clipPathUnits="userSpaceOnUse"
       id="clipPath68">
      <path
         d="M 0,600 H 600 V 0 H 0 Z"
         transform="translate(-490.44431,-111.6406)"
         id="path68" />
    </clipPath>
    <clipPath
       clipPathUnits="userSpaceOnUse"
       id="clipPath70">
      <path
         d="M 0,600 H 600 V 0 H 0 Z"
         transform="translate(-542.69632,-106.8184)"
         id="path70" />
    </clipPath>
    <clipPath
       clipPathUnits="userSpaceOnUse"
       id="clipPath72">
      <path
         d="M 0,600 H 600 V 0 H 0 Z"
         transform="translate(-438.19341,-106.8184)"
         id="path72" />
    </clipPath>
    <clipPath
       clipPathUnits="userSpaceOnUse"
       id="clipPath74">
      <path
         d="M 0,600 H 600 V 0 H 0 Z"
         transform="translate(-410.41701,-183.18951)"
         id="path74" />
    </clipPath>
    <clipPath
       clipPathUnits="userSpaceOnUse"
       id="clipPath76">
      <path
         d="M 0,600 H 600 V 0 H 0 Z"
         transform="translate(-490.44431,-234.11821)"
         id="path76" />
    </clipPath>
    <clipPath
       clipPathUnits="userSpaceOnUse"
       id="clipPath78">
      <path
         d="M 0,600 H 600 V 0 H 0 Z"
         transform="translate(-490.44431,-229.05961)"
         id="path78" />
    </clipPath>
    <clipPath
       clipPathUnits="userSpaceOnUse"
       id="clipPath80">
      <path
         d="M 0,600 H 600 V 0 H 0 Z"
         transform="translate(-454.81451,-204.68851)"
         id="path80" />
    </clipPath>
    <clipPath
       clipPathUnits="userSpaceOnUse"
       id="clipPath82">
      <path
         d="M 0,600 H 600 V 0 H 0 Z"
         transform="translate(-448.29491,-126.9082)"
         id="path82" />
    </clipPath>
    <clipPath
       clipPathUnits="userSpaceOnUse"
       id="clipPath84">
      <path
         d="M 0,600 H 600 V 0 H 0 Z"
         transform="translate(-490.44431,-82.1221)"
         id="path84" />
    </clipPath>
    <clipPath
       clipPathUnits="userSpaceOnUse"
       id="clipPath86">
      <path
         d="M 0,600 H 600 V 0 H 0 Z"
         transform="translate(-490.44431,-98.7979)"
         id="path86" />
    </clipPath>
    <clipPath
       clipPathUnits="userSpaceOnUse"
       id="clipPath88">
      <path
         d="M 0,600 H 600 V 0 H 0 Z"
         transform="translate(-490.44431,-57.727501)"
         id="path88" />
    </clipPath>
    <clipPath
       clipPathUnits="userSpaceOnUse"
       id="clipPath90">
      <path
         d="M 0,600 H 600 V 0 H 0 Z"
         transform="translate(-490.44431,-74.403302)"
         id="path90" />
    </clipPath>
    <clipPath
       clipPathUnits="userSpaceOnUse"
       id="clipPath92">
      <path
         d="M 0,600 H 600 V 0 H 0 Z"
         transform="translate(-490.44431,-33.299798)"
         id="path92" />
    </clipPath>
    <clipPath
       clipPathUnits="userSpaceOnUse"
       id="clipPath94">
      <path
         d="M 0,600 H 600 V 0 H 0 Z"
         transform="translate(-490.44431,-49.975599)"
         id="path94" />
    </clipPath>
    <clipPath
       clipPathUnits="userSpaceOnUse"
       id="clipPath96">
      <path
         d="M 0,600 H 600 V 0 H 0 Z"
         transform="translate(-490.44431,-13.330103)"
         id="path96" />
    </clipPath>
    <clipPath
       clipPathUnits="userSpaceOnUse"
       id="clipPath98">
      <path
         d="M 0,600 H 600 V 0 H 0 Z"
         transform="translate(-490.44431,-25.581998)"
         id="path98" />
    </clipPath>
    <clipPath
       clipPathUnits="userSpaceOnUse"
       id="clipPath100">
      <path
         d="M 0,600 H 600 V 0 H 0 Z"
         transform="translate(-398.29201,-47.900401)"
         id="path100" />
    </clipPath>
  </defs>
  <sodipodi:namedview
     id="namedview1"
     pagecolor="#ffffff"
     bordercolor="#000000"
     borderopacity="0.25"
     inkscape:showpageshadow="2"
     inkscape:pageopacity="0.0"
     inkscape:pagecheckerboard="0"
     inkscape:deskcolor="#d1d1d1"
     inkscape:zoom="0.7625"
     inkscape:cx="399.34426"
     inkscape:cy="400"
     inkscape:window-width="1440"
     inkscape:window-height="830"
     inkscape:window-x="-6"
     inkscape:window-y="-6"
     inkscape:window-maximized="1"
     inkscape:current-layer="g1">
    <inkscape:page
       x="0"
       y="0"
       inkscape:label="1"
       id="page1"
       width="800"
       height="800"
       margin="0 0 0.528 0.84635466"
       bleed="0" />
  </sodipodi:namedview>
  <g
     id="g1"
     inkscape:groupmode="layer"
     inkscape:label="1">
    <g
       id="group-MC0">
      <path
         id="path2"
         d="M 0.635,0 H 600.001 V 599.604 H 0.635 Z"
         style="fill:#eaf3f8;fill-opacity:1;fill-rule:nonzero;stroke:none"
         transform="matrix(1.3333333,0,0,-1.3333333,0,800)" />
      <path
         id="path3"
         d="m 0,0 c -7.663,0 -13.875,-6.213 -13.875,-13.875 0,-7.664 6.212,-13.876 13.875,-13.876 7.663,0 13.875,6.212 13.875,13.876 C 13.875,-6.213 7.663,0 0,0 m 0,11.556 c 14.044,0 25.429,-11.387 25.429,-25.431 0,-14.045 -11.385,-25.43 -25.429,-25.43 -14.045,0 -25.43,11.385 -25.43,25.43 0,14.044 11.385,25.431 25.43,25.431"
         style="fill:#2d2b2d;fill-opacity:1;fill-rule:evenodd;stroke:none"
         transform="matrix(1.3333333,0,0,-1.3333333,400.584,532.7044)"
         clip-path="url(#clipPath4)" />
      <path
         id="path5"
         d="m 0,0 -140.381,243.146 c -7.267,12.587 -50.202,-12.203 -42.935,-24.788 L -42.936,-24.789 C -35.669,-37.376 7.267,-12.586 0,0"
         style="fill:#2d2b2d;fill-opacity:1;fill-rule:evenodd;stroke:none"
         transform="matrix(1.3333333,0,0,-1.3333333,522.7956,543.98573)"
         clip-path="url(#clipPath6)" />
      <path
         id="path7"
         d="m 0,0 140.38,243.147 c 7.267,12.586 50.201,-12.204 42.936,-24.789 L 42.935,-24.789 C 35.668,-37.376 -7.267,-12.587 0,0"
         style="fill:#2d2b2d;fill-opacity:1;fill-rule:evenodd;stroke:none"
         transform="matrix(1.3333333,0,0,-1.3333333,278.37373,543.98573)"
         clip-path="url(#clipPath8)" />
      <path
         id="path9"
         d="m 0,0 h 280.762 c 14.533,0 14.533,-49.577 0,-49.577 H 0 C -14.533,-49.577 -14.533,0 0,0"
         style="fill:#2d2b2d;fill-opacity:1;fill-rule:evenodd;stroke:none"
         transform="matrix(1.3333333,0,0,-1.3333333,213.4088,365.36333)"
         clip-path="url(#clipPath10)" />
      <path
         id="path11"
         d="m 0,0 c 63.031,0 114.126,-51.097 114.126,-114.128 0,-63.031 -51.095,-114.128 -114.126,-114.128 -63.031,0 -114.127,51.097 -114.127,114.128 C -114.127,-51.097 -63.031,0 0,0"
         style="fill:#46454b;fill-opacity:1;fill-rule:evenodd;stroke:none"
         transform="matrix(1.3333333,0,0,-1.3333333,400.584,246.24347)"
         clip-path="url(#clipPath12)" />
      <path
         id="path13"
         d="m 0,0 c 42.605,0 77.144,-26.299 77.144,-58.739 0,-32.442 -34.539,-58.74 -77.144,-58.74 -42.605,0 -77.144,26.298 -77.144,58.74 C -77.144,-26.299 -42.605,0 0,0"
         style="fill:#4f4d55;fill-opacity:1;fill-rule:evenodd;stroke:none"
         transform="matrix(1.3333333,0,0,-1.3333333,400.584,258.07813)"
         clip-path="url(#clipPath14)" />
      <path
         id="path15"
         d="m 0,0 c 6.43,6.43 15.231,8.717 22.478,6.569 l 3.45,3.399 5.705,-9.911 V 0.056 c 5.504,-7.782 3.944,-19.54 -4.102,-27.587 -8.047,-8.046 -19.804,-9.606 -27.587,-4.102 v 0 l -10.244,5.902 3.637,3.584 C -8.647,-14.964 -6.332,-6.332 0,0 m 0,-125.002 c -6.43,6.429 -8.718,15.23 -6.568,22.478 l -3.399,3.45 9.911,5.706 v -0.002 c 7.783,5.505 19.54,3.945 27.587,-4.102 8.046,-8.046 9.606,-19.803 4.102,-27.586 v 0 l -5.901,-10.244 -3.584,3.636 c -7.183,-1.983 -15.816,0.331 -22.148,6.664 m 125.003,0 c -6.43,-6.431 -15.231,-8.716 -22.479,-6.568 l -3.449,-3.4 -5.706,9.912 h 0.001 c -5.505,7.783 -3.944,19.54 4.102,27.586 8.046,8.047 19.803,9.607 27.587,4.102 v 0.002 l 10.244,-5.903 -3.637,-3.583 c 1.984,-7.183 -0.331,-15.815 -6.663,-22.148 M 125.002,0 c 6.431,-6.43 8.718,-15.23 6.568,-22.478 l 3.399,-3.45 -9.91,-5.705 v 0 c -7.784,-5.504 -19.541,-3.944 -27.587,4.102 -8.046,8.047 -9.607,19.805 -4.103,27.587 L 93.368,0.057 99.272,10.3 102.854,6.664 C 110.038,8.647 118.671,6.333 125.002,0"
         style="fill:#626169;fill-opacity:1;fill-rule:evenodd;stroke:none"
         transform="matrix(1.3333333,0,0,-1.3333333,317.24867,315.07947)"
         clip-path="url(#clipPath16)" />
      <path
         id="path17"
         d="M 0,0 C -10.174,10.173 -11.334,25.509 -2.59,34.253 6.153,42.996 21.489,41.836 31.663,31.664 41.837,21.488 42.996,6.153 34.253,-2.589 25.508,-11.334 10.173,-10.174 0,0 m 0,147.872 c 10.173,10.173 25.508,11.333 34.253,2.589 8.743,-8.744 7.584,-24.079 -2.59,-34.253 -10.174,-10.174 -25.51,-11.333 -34.253,-2.589 -8.744,8.743 -7.584,24.079 2.59,34.253 m 147.872,0 c 10.173,-10.174 11.332,-25.51 2.59,-34.253 -8.746,-8.744 -24.08,-7.585 -34.254,2.589 -10.173,10.174 -11.332,25.509 -2.589,34.253 8.744,8.744 24.079,7.584 34.253,-2.589 M 147.872,0 c -10.174,-10.174 -25.509,-11.334 -34.253,-2.589 -8.743,8.742 -7.584,24.077 2.589,34.253 10.174,10.172 25.508,11.332 34.254,2.589 8.742,-8.744 7.583,-24.08 -2.59,-34.253"
         style="fill:#7f7e86;fill-opacity:1;fill-rule:evenodd;stroke:none"
         transform="matrix(1.3333333,0,0,-1.3333333,302.0032,496.9948)"
         clip-path="url(#clipPath18)" />
      <path
         id="path19"
         d="m 0,0 c -5.147,0 -9.32,-4.173 -9.32,-9.318 0,-5.15 4.173,-9.322 9.32,-9.322 5.147,0 9.32,4.172 9.32,9.322 C 9.32,-4.173 5.147,0 0,0 m 0,7.762 c 9.433,0 17.081,-7.648 17.081,-17.08 C 17.081,-18.753 9.433,-26.4 0,-26.4 c -9.434,0 -17.081,7.647 -17.081,17.082 0,9.432 7.647,17.08 17.081,17.08"
         style="fill:#2d2b2d;fill-opacity:1;fill-rule:evenodd;stroke:none"
         transform="matrix(1.3333333,0,0,-1.3333333,400.584,601.74733)"
         clip-path="url(#clipPath20)" />
      <path
         id="path21"
         d="M 0,0 V 0 C 1.91,0 3.472,-1.564 3.472,-3.473 V -30.72 c 0,-1.909 -1.562,-3.472 -3.472,-3.472 -1.91,0 -3.473,1.563 -3.473,3.472 V -3.473 C -3.473,-1.564 -1.91,0 0,0"
         style="fill:#46454b;fill-opacity:1;fill-rule:evenodd;stroke:none"
         transform="matrix(1.3333333,0,0,-1.3333333,400.584,562.74347)"
         clip-path="url(#clipPath22)" />
      <path
         id="path23"
         d="m 0,0 c -5.707,0 -10.334,-4.627 -10.334,-10.334 0,-5.707 4.627,-10.334 10.334,-10.334 5.707,0 10.333,4.627 10.333,10.334 C 10.333,-4.627 5.707,0 0,0 m 0,8.605 c 10.46,0 18.939,-8.479 18.939,-18.939 0,-10.46 -8.479,-18.939 -18.939,-18.939 -10.461,0 -18.94,8.479 -18.94,18.939 0,10.46 8.479,18.939 18.94,18.939"
         style="fill:#2d2b2d;fill-opacity:1;fill-rule:evenodd;stroke:none"
         transform="matrix(1.3333333,0,0,-1.3333333,400.584,656.95707)"
         clip-path="url(#clipPath24)" />
      <path
         id="path25"
         d="m 0,0 v 0 c 1.91,0 3.472,-1.562 3.472,-3.473 v -27.246 c 0,-1.91 -1.562,-3.472 -3.472,-3.472 -1.91,0 -3.473,1.562 -3.473,3.472 V -3.473 C -3.473,-1.562 -1.91,0 0,0"
         style="fill:#46454b;fill-opacity:1;fill-rule:evenodd;stroke:none"
         transform="matrix(1.3333333,0,0,-1.3333333,400.584,619.79813)"
         clip-path="url(#clipPath26)" />
      <path
         id="path27"
         d="m 0,0 c -5.147,0 -9.32,-4.173 -9.32,-9.319 0,-5.148 4.173,-9.321 9.32,-9.321 5.147,0 9.32,4.173 9.32,9.321 C 9.32,-4.173 5.147,0 0,0 M 0,7.763 C 9.433,7.763 17.081,0.115 17.081,-9.319 17.081,-18.753 9.433,-26.4 0,-26.4 c -9.434,0 -17.081,7.647 -17.081,17.081 0,9.434 7.647,17.082 17.081,17.082"
         style="fill:#2d2b2d;fill-opacity:1;fill-rule:evenodd;stroke:none"
         transform="matrix(1.3333333,0,0,-1.3333333,400.584,715.93747)"
         clip-path="url(#clipPath28)" />
      <path
         id="path29"
         d="m 0,0 v 0 c 1.91,0 3.472,-1.562 3.472,-3.473 v -27.244 c 0,-1.91 -1.562,-3.472 -3.472,-3.472 -1.91,0 -3.473,1.562 -3.473,3.472 V -3.473 C -3.473,-1.562 -1.91,0 0,0"
         style="fill:#46454b;fill-opacity:1;fill-rule:evenodd;stroke:none"
         transform="matrix(1.3333333,0,0,-1.3333333,400.584,676.93493)"
         clip-path="url(#clipPath30)" />
      <path
         id="path31"
         d="m 0,0 c -5.147,0 -9.32,-4.173 -9.32,-9.32 0,-5.148 4.173,-9.32 9.32,-9.32 5.147,0 9.32,4.172 9.32,9.32 C 9.32,-4.173 5.147,0 0,0 m 0,7.762 c 9.433,0 17.081,-7.648 17.081,-17.082 0,-4.161 -1.489,-7.974 -3.961,-10.936 h -26.24 c -2.472,2.962 -3.961,6.775 -3.961,10.936 0,9.434 7.647,17.082 17.081,17.082"
         style="fill:#2d2b2d;fill-opacity:1;fill-rule:evenodd;stroke:none"
         transform="matrix(1.3333333,0,0,-1.3333333,400.584,772.99213)"
         clip-path="url(#clipPath32)" />
      <path
         id="path33"
         d="M 0,0 V 0 C 1.91,0 3.472,-1.564 3.472,-3.473 V -30.72 c 0,-1.909 -1.562,-3.472 -3.472,-3.472 -1.91,0 -3.473,1.563 -3.473,3.472 V -3.473 C -3.473,-1.564 -1.91,0 0,0"
         style="fill:#46454b;fill-opacity:1;fill-rule:evenodd;stroke:none"
         transform="matrix(1.3333333,0,0,-1.3333333,400.584,733.98827)"
         clip-path="url(#clipPath34)" />
      <path
         id="path35"
         d="m 0,0 c -4.369,0 -7.91,-3.541 -7.91,-7.909 0,-4.369 3.541,-7.909 7.91,-7.909 4.368,0 7.909,3.54 7.909,7.909 C 7.909,-3.541 4.368,0 0,0 m 0,6.588 c 8.005,0 14.497,-6.49 14.497,-14.497 0,-8.006 -6.492,-14.496 -14.497,-14.496 -8.007,0 -14.497,6.49 -14.497,14.496 0,8.007 6.49,14.497 14.497,14.497"
         style="fill:#7f7e86;fill-opacity:1;fill-rule:evenodd;stroke:none"
         transform="matrix(1.3333333,0,0,-1.3333333,147.24213,651.14587)"
         clip-path="url(#clipPath36)" />
      <path
         id="path37"
         d="m 0,0 -80.027,138.61 c -4.142,7.176 -28.618,-6.956 -24.476,-14.13 L -24.476,-14.132 C -20.334,-21.308 4.143,-7.176 0,0"
         style="fill:#626169;fill-opacity:1;fill-rule:evenodd;stroke:none"
         transform="matrix(1.3333333,0,0,-1.3333333,216.91013,657.57547)"
         clip-path="url(#clipPath38)" />
      <path
         id="path39"
         d="m 0,0 80.027,138.61 c 4.142,7.176 28.618,-6.956 24.476,-14.13 L 24.476,-14.132 C 20.334,-21.308 -4.143,-7.176 0,0"
         style="fill:#626169;fill-opacity:1;fill-rule:evenodd;stroke:none"
         transform="matrix(1.3333333,0,0,-1.3333333,77.572933,657.57547)"
         clip-path="url(#clipPath40)" />
      <path
         id="path41"
         d="m 0,0 h 160.055 c 8.284,0 8.284,-28.263 0,-28.263 H 0 C -8.285,-28.263 -8.285,0 0,0"
         style="fill:#626169;fill-opacity:1;fill-rule:evenodd;stroke:none"
         transform="matrix(1.3333333,0,0,-1.3333333,40.5384,555.74867)"
         clip-path="url(#clipPath42)" />
      <path
         id="path43"
         d="m 0,0 c 35.932,0 65.061,-29.129 65.061,-65.062 0,-35.93 -29.129,-65.059 -65.061,-65.059 -35.933,0 -65.062,29.129 -65.062,65.059 C -65.062,-29.129 -35.933,0 0,0"
         style="fill:#7f7e86;fill-opacity:1;fill-rule:evenodd;stroke:none"
         transform="matrix(1.3333333,0,0,-1.3333333,147.24213,487.8424)"
         clip-path="url(#clipPath44)" />
      <path
         id="path45"
         d="M 0,0 C 24.288,0 43.977,-14.992 43.977,-33.486 43.977,-51.98 24.288,-66.972 0,-66.972 c -24.288,0 -43.977,14.992 -43.977,33.486 C -43.977,-14.992 -24.288,0 0,0"
         style="fill:#918f97;fill-opacity:1;fill-rule:evenodd;stroke:none"
         transform="matrix(1.3333333,0,0,-1.3333333,147.24213,494.5872)"
         clip-path="url(#clipPath46)" />
      <path
         id="path47"
         d="m 0,0 c 3.666,3.664 8.682,4.97 12.814,3.743 l 1.966,1.939 3.254,-5.651 c 3.137,-4.436 2.248,-11.139 -2.339,-15.726 -4.587,-4.587 -11.29,-5.476 -15.726,-2.338 l -0.001,-0.002 -5.839,3.366 2.073,2.042 C -4.93,-8.532 -3.609,-3.61 0,0 m 0,-71.262 c -3.665,3.666 -4.969,8.683 -3.744,12.815 l -1.938,1.967 5.65,3.252 h 0.001 c 4.436,3.137 11.139,2.249 15.726,-2.338 4.587,-4.587 5.476,-11.29 2.339,-15.727 l -3.365,-5.839 -2.043,2.073 C 8.531,-76.19 3.61,-74.87 0,-71.262 m 71.261,0 c -3.666,-3.664 -8.682,-4.967 -12.814,-3.743 l -1.967,-1.938 -3.253,5.65 c -3.137,4.437 -2.248,11.14 2.339,15.727 4.587,4.587 11.289,5.475 15.726,2.338 h 0.001 l 5.839,-3.365 -2.073,-2.042 c 1.131,-4.094 -0.189,-9.016 -3.798,-12.627 M 71.26,0 c 3.666,-3.666 4.97,-8.683 3.744,-12.814 l 1.939,-1.967 -5.65,-3.254 -0.001,0.002 c -4.437,-3.138 -11.139,-2.249 -15.726,2.338 -4.587,4.587 -5.476,11.29 -2.339,15.726 v 0 L 56.591,5.87 58.634,3.797 C 62.73,4.929 67.65,3.61 71.26,0"
         style="fill:#72717e;fill-opacity:1;fill-rule:evenodd;stroke:none"
         transform="matrix(1.3333333,0,0,-1.3333333,99.7344,527.082)"
         clip-path="url(#clipPath48)" />
      <path
         id="path49"
         d="M 0,0 C -5.799,5.8 -6.46,14.543 -1.476,19.527 3.508,24.512 12.25,23.851 18.05,18.052 23.851,12.251 24.511,3.509 19.526,-1.476 14.542,-6.46 5.8,-5.799 0,0 m 0,84.299 c 5.8,5.8 14.542,6.46 19.526,1.475 C 24.511,80.79 23.851,72.048 18.05,66.247 12.25,60.448 3.508,59.787 -1.476,64.771 -6.46,69.756 -5.799,78.499 0,84.299 m 84.298,0 c 5.799,-5.8 6.46,-14.543 1.476,-19.528 -4.984,-4.984 -13.727,-4.323 -19.527,1.476 -5.799,5.801 -6.46,14.543 -1.476,19.527 4.985,4.985 13.727,4.325 19.527,-1.475 M 84.298,0 c -5.8,-5.799 -14.542,-6.46 -19.527,-1.476 -4.984,4.985 -4.323,13.727 1.476,19.528 5.8,5.799 14.543,6.46 19.527,1.475 C 90.758,14.543 90.097,5.8 84.298,0"
         style="fill:#bcb8c2;fill-opacity:1;fill-rule:evenodd;stroke:none"
         transform="matrix(1.3333333,0,0,-1.3333333,91.042933,630.78907)"
         clip-path="url(#clipPath50)" />
      <path
         id="path51"
         d="m 0,0 c -2.934,0 -5.314,-2.378 -5.314,-5.313 0,-2.934 2.38,-5.313 5.314,-5.313 2.934,0 5.313,2.379 5.313,5.313 C 5.313,-2.378 2.934,0 0,0 m 0,4.425 c 5.377,0 9.737,-4.361 9.737,-9.738 0,-5.378 -4.36,-9.737 -9.737,-9.737 -5.378,0 -9.738,4.359 -9.738,9.737 0,5.377 4.36,9.738 9.738,9.738"
         style="fill:#7f7e86;fill-opacity:1;fill-rule:evenodd;stroke:none"
         transform="matrix(1.3333333,0,0,-1.3333333,147.24213,690.50387)"
         clip-path="url(#clipPath52)" />
      <path
         id="path53"
         d="m 0,0 v 0 c 1.089,0 1.98,-0.891 1.98,-1.979 v -15.534 c 0,-1.088 -0.891,-1.978 -1.98,-1.978 -1.089,0 -1.979,0.89 -1.979,1.978 V -1.979 C -1.979,-0.891 -1.089,0 0,0"
         style="fill:#bcb8c2;fill-opacity:1;fill-rule:evenodd;stroke:none"
         transform="matrix(1.3333333,0,0,-1.3333333,147.24213,668.26947)"
         clip-path="url(#clipPath54)" />
      <path
         id="path55"
         d="m 0,0 c -2.934,0 -5.314,-2.379 -5.314,-5.313 0,-2.935 2.38,-5.313 5.314,-5.313 2.934,0 5.313,2.378 5.313,5.313 C 5.313,-2.379 2.934,0 0,0 m 0,4.425 c 5.377,0 9.737,-4.361 9.737,-9.738 0,-5.377 -4.36,-9.738 -9.737,-9.738 -5.378,0 -9.738,4.361 -9.738,9.738 0,5.377 4.36,9.738 9.738,9.738"
         style="fill:#7f7e86;fill-opacity:1;fill-rule:evenodd;stroke:none"
         transform="matrix(1.3333333,0,0,-1.3333333,147.24213,723.03)"
         clip-path="url(#clipPath56)" />
      <path
         id="path57"
         d="m 0,0 v 0 c 1.089,0 1.98,-0.891 1.98,-1.979 v -15.532 c 0,-1.09 -0.891,-1.98 -1.98,-1.98 -1.089,0 -1.979,0.89 -1.979,1.98 V -1.979 C -1.979,-0.891 -1.089,0 0,0"
         style="fill:#bcb8c2;fill-opacity:1;fill-rule:evenodd;stroke:none"
         transform="matrix(1.3333333,0,0,-1.3333333,147.24213,700.7956)"
         clip-path="url(#clipPath58)" />
      <path
         id="path59"
         d="m 0,0 c -2.934,0 -5.314,-2.379 -5.314,-5.312 0,-2.936 2.38,-5.314 5.314,-5.314 2.934,0 5.313,2.378 5.313,5.314 C 5.313,-2.379 2.934,0 0,0 m 0,4.424 c 5.377,0 9.737,-4.36 9.737,-9.736 0,-5.38 -4.36,-9.739 -9.737,-9.739 -5.378,0 -9.738,4.359 -9.738,9.739 0,5.376 4.36,9.736 9.738,9.736"
         style="fill:#7f7e86;fill-opacity:1;fill-rule:evenodd;stroke:none"
         transform="matrix(1.3333333,0,0,-1.3333333,147.24213,755.60027)"
         clip-path="url(#clipPath60)" />
      <path
         id="path61"
         d="m 0,0 v 0 c 1.089,0 1.98,-0.891 1.98,-1.979 v -15.533 c 0,-1.089 -0.891,-1.979 -1.98,-1.979 -1.089,0 -1.979,0.89 -1.979,1.979 V -1.979 C -1.979,-0.891 -1.089,0 0,0"
         style="fill:#bcb8c2;fill-opacity:1;fill-rule:evenodd;stroke:none"
         transform="matrix(1.3333333,0,0,-1.3333333,147.24213,733.36587)"
         clip-path="url(#clipPath62)" />
      <path
         id="path63"
         d="m 0,0 c 5.377,0 9.737,-4.359 9.737,-9.737 0,-1.27 -0.243,-2.483 -0.685,-3.593 H 3.913 c 0.868,0.946 1.4,2.206 1.4,3.593 0,2.933 -2.379,5.311 -5.313,5.311 -2.934,0 -5.314,-2.378 -5.314,-5.311 0,-1.387 0.532,-2.647 1.401,-3.593 h -5.141 c -0.44,1.11 -0.684,2.323 -0.684,3.593 C -9.738,-4.359 -5.378,0 0,0"
         style="fill:#7f7e86;fill-opacity:1;fill-rule:evenodd;stroke:none"
         transform="matrix(1.3333333,0,0,-1.3333333,147.24213,782.22653)"
         clip-path="url(#clipPath64)" />
      <path
         id="path65"
         d="m 0,0 v 0 c 1.089,0 1.98,-0.891 1.98,-1.98 v -15.533 c 0,-1.088 -0.891,-1.978 -1.98,-1.978 -1.089,0 -1.979,0.89 -1.979,1.978 V -1.98 C -1.979,-0.891 -1.089,0 0,0"
         style="fill:#bcb8c2;fill-opacity:1;fill-rule:evenodd;stroke:none"
         transform="matrix(1.3333333,0,0,-1.3333333,147.24213,765.89067)"
         clip-path="url(#clipPath66)" />
      <path
         id="path67"
         d="m 0,0 c -4.368,0 -7.909,-3.541 -7.909,-7.909 0,-4.369 3.541,-7.909 7.909,-7.909 4.369,0 7.91,3.54 7.91,7.909 C 7.91,-3.541 4.369,0 0,0 m 0,6.588 c 8.006,0 14.496,-6.49 14.496,-14.497 0,-8.006 -6.49,-14.496 -14.496,-14.496 -8.007,0 -14.497,6.49 -14.497,14.496 0,8.007 6.49,14.497 14.497,14.497"
         style="fill:#7f7e86;fill-opacity:1;fill-rule:evenodd;stroke:none"
         transform="matrix(1.3333333,0,0,-1.3333333,653.92573,651.14587)"
         clip-path="url(#clipPath68)" />
      <path
         id="path69"
         d="m 0,0 -80.027,138.61 c -4.143,7.176 -28.62,-6.956 -24.476,-14.13 L -24.476,-14.132 C -20.334,-21.308 4.143,-7.176 0,0"
         style="fill:#626169;fill-opacity:1;fill-rule:evenodd;stroke:none"
         transform="matrix(1.3333333,0,0,-1.3333333,723.59507,657.57547)"
         clip-path="url(#clipPath70)" />
      <path
         id="path71"
         d="m 0,0 80.027,138.61 c 4.142,7.176 28.618,-6.956 24.476,-14.13 L 24.475,-14.132 C 20.333,-21.308 -4.144,-7.176 0,0"
         style="fill:#626169;fill-opacity:1;fill-rule:evenodd;stroke:none"
         transform="matrix(1.3333333,0,0,-1.3333333,584.25787,657.57547)"
         clip-path="url(#clipPath72)" />
      <path
         id="path73"
         d="m 0,0 h 160.056 c 8.283,0 8.283,-28.263 0,-28.263 H 0 C -8.284,-28.263 -8.284,0 0,0"
         style="fill:#626169;fill-opacity:1;fill-rule:evenodd;stroke:none"
         transform="matrix(1.3333333,0,0,-1.3333333,547.22267,555.74733)"
         clip-path="url(#clipPath74)" />
      <path
         id="path75"
         d="m 0,0 c 35.932,0 65.062,-29.129 65.062,-65.06 0,-35.932 -29.13,-65.061 -65.062,-65.061 -35.933,0 -65.06,29.129 -65.06,65.061 C -65.06,-29.129 -35.933,0 0,0"
         style="fill:#7f7e86;fill-opacity:1;fill-rule:evenodd;stroke:none"
         transform="matrix(1.3333333,0,0,-1.3333333,653.92573,487.8424)"
         clip-path="url(#clipPath76)" />
      <path
         id="path77"
         d="m 0,0 c 24.288,0 43.978,-14.992 43.978,-33.486 0,-18.494 -19.69,-33.486 -43.978,-33.486 -24.287,0 -43.976,14.992 -43.976,33.486 C -43.976,-14.992 -24.287,0 0,0"
         style="fill:#918f97;fill-opacity:1;fill-rule:evenodd;stroke:none"
         transform="matrix(1.3333333,0,0,-1.3333333,653.92573,494.5872)"
         clip-path="url(#clipPath78)" />
      <path
         id="path79"
         d="m 0,0 c 3.665,3.664 8.683,4.97 12.813,3.743 l 1.967,1.939 3.253,-5.651 c 3.137,-4.436 2.248,-11.139 -2.34,-15.726 -4.586,-4.587 -11.289,-5.476 -15.725,-2.338 l -5.84,3.364 2.074,2.042 C -4.93,-8.532 -3.609,-3.61 0,0 m 0,-71.262 c -3.666,3.666 -4.97,8.683 -3.744,12.815 l -1.939,1.967 5.651,3.253 v -0.001 c 4.436,3.137 11.139,2.249 15.725,-2.338 4.588,-4.587 5.477,-11.29 2.34,-15.727 l -3.365,-5.839 -2.041,2.073 C 8.531,-76.19 3.609,-74.87 0,-71.262 m 71.26,0 c -3.664,-3.664 -8.682,-4.967 -12.813,-3.743 l -1.967,-1.938 -3.254,5.65 h 0.002 c -3.139,4.437 -2.249,11.14 2.337,15.727 4.588,4.587 11.29,5.475 15.727,2.338 v 0.001 l 5.84,-3.366 -2.073,-2.042 C 76.19,-62.729 74.87,-67.651 71.26,-71.262 M 71.26,0 c 3.665,-3.666 4.969,-8.683 3.745,-12.814 l 1.936,-1.967 -5.649,-3.254 v 0.002 c -4.437,-3.138 -11.139,-2.249 -15.727,2.338 -4.586,4.587 -5.476,11.29 -2.337,15.726 H 53.226 L 56.591,5.87 58.634,3.797 C 62.729,4.929 67.65,3.61 71.26,0"
         style="fill:#72717e;fill-opacity:1;fill-rule:evenodd;stroke:none"
         transform="matrix(1.3333333,0,0,-1.3333333,606.41933,527.082)"
         clip-path="url(#clipPath80)" />
      <path
         id="path81"
         d="m 0,0 c -5.8,5.8 -6.46,14.543 -1.476,19.527 4.985,4.985 13.728,4.324 19.527,-1.475 5.8,-5.801 6.461,-14.543 1.476,-19.528 C 14.543,-6.46 5.801,-5.799 0,0 m 0,84.299 c 5.801,5.799 14.543,6.46 19.527,1.475 C 24.512,80.79 23.851,72.048 18.051,66.247 12.252,60.448 3.509,59.787 -1.476,64.771 -6.46,69.756 -5.8,78.499 0,84.299 m 84.299,0 c 5.799,-5.8 6.461,-14.543 1.476,-19.528 -4.984,-4.984 -13.727,-4.323 -19.527,1.478 -5.799,5.799 -6.461,14.541 -1.476,19.525 4.984,4.985 13.727,4.324 19.527,-1.475 M 84.299,0 c -5.8,-5.799 -14.543,-6.46 -19.527,-1.476 -4.985,4.985 -4.323,13.727 1.476,19.528 5.8,5.799 14.543,6.46 19.527,1.475 C 90.76,14.543 90.098,5.8 84.299,0"
         style="fill:#bcb8c2;fill-opacity:1;fill-rule:evenodd;stroke:none"
         transform="matrix(1.3333333,0,0,-1.3333333,597.72653,630.78907)"
         clip-path="url(#clipPath82)" />
      <path
         id="path83"
         d="m 0,0 c -2.934,0 -5.312,-2.378 -5.312,-5.313 0,-2.934 2.378,-5.313 5.312,-5.313 2.935,0 5.314,2.379 5.314,5.313 C 5.314,-2.378 2.935,0 0,0 m 0,4.425 c 5.378,0 9.738,-4.361 9.738,-9.738 0,-5.378 -4.36,-9.737 -9.738,-9.737 -5.378,0 -9.737,4.359 -9.737,9.737 0,5.377 4.359,9.738 9.737,9.738"
         style="fill:#7f7e86;fill-opacity:1;fill-rule:evenodd;stroke:none"
         transform="matrix(1.3333333,0,0,-1.3333333,653.92573,690.50387)"
         clip-path="url(#clipPath84)" />
      <path
         id="path85"
         d="M 0,0 H 0.001 C 1.089,0 1.98,-0.891 1.98,-1.979 v -15.534 c 0,-1.088 -0.891,-1.978 -1.979,-1.978 H 0 c -1.089,0 -1.979,0.89 -1.979,1.978 V -1.979 C -1.979,-0.891 -1.089,0 0,0"
         style="fill:#bcb8c2;fill-opacity:1;fill-rule:evenodd;stroke:none"
         transform="matrix(1.3333333,0,0,-1.3333333,653.92573,668.26947)"
         clip-path="url(#clipPath86)" />
      <path
         id="path87"
         d="m 0,0 c -2.934,0 -5.312,-2.379 -5.312,-5.312 0,-2.936 2.378,-5.314 5.312,-5.314 2.935,0 5.314,2.378 5.314,5.314 C 5.314,-2.379 2.935,0 0,0 m 0,4.425 c 5.378,0 9.738,-4.361 9.738,-9.737 0,-5.378 -4.36,-9.739 -9.738,-9.739 -5.378,0 -9.737,4.361 -9.737,9.739 0,5.376 4.359,9.737 9.737,9.737"
         style="fill:#7f7e86;fill-opacity:1;fill-rule:evenodd;stroke:none"
         transform="matrix(1.3333333,0,0,-1.3333333,653.92573,723.03)"
         clip-path="url(#clipPath88)" />
      <path
         id="path89"
         d="M 0,0 H 0.001 C 1.089,0 1.98,-0.891 1.98,-1.979 v -15.532 c 0,-1.09 -0.891,-1.98 -1.979,-1.98 H 0 c -1.089,0 -1.979,0.89 -1.979,1.98 V -1.979 C -1.979,-0.891 -1.089,0 0,0"
         style="fill:#bcb8c2;fill-opacity:1;fill-rule:evenodd;stroke:none"
         transform="matrix(1.3333333,0,0,-1.3333333,653.92573,700.7956)"
         clip-path="url(#clipPath90)" />
      <path
         id="path91"
         d="m 0,0 c -2.934,0 -5.312,-2.379 -5.312,-5.314 0,-2.934 2.378,-5.312 5.312,-5.312 2.935,0 5.314,2.378 5.314,5.312 C 5.314,-2.379 2.935,0 0,0 m 0,4.424 c 5.378,0 9.738,-4.36 9.738,-9.738 0,-5.376 -4.36,-9.737 -9.738,-9.737 -5.378,0 -9.737,4.361 -9.737,9.737 0,5.378 4.359,9.738 9.737,9.738"
         style="fill:#7f7e86;fill-opacity:1;fill-rule:evenodd;stroke:none"
         transform="matrix(1.3333333,0,0,-1.3333333,653.92573,755.60027)"
         clip-path="url(#clipPath92)" />
      <path
         id="path93"
         d="M 0,0 H 0.001 C 1.089,0 1.98,-0.891 1.98,-1.979 v -15.533 c 0,-1.089 -0.891,-1.979 -1.979,-1.979 H 0 c -1.089,0 -1.979,0.89 -1.979,1.979 V -1.979 C -1.979,-0.891 -1.089,0 0,0"
         style="fill:#bcb8c2;fill-opacity:1;fill-rule:evenodd;stroke:none"
         transform="matrix(1.3333333,0,0,-1.3333333,653.92573,733.36587)"
         clip-path="url(#clipPath94)" />
      <path
         id="path95"
         d="m 0,0 c 5.378,0 9.738,-4.359 9.738,-9.737 0,-1.27 -0.244,-2.483 -0.685,-3.593 H 3.914 c 0.868,0.946 1.4,2.206 1.4,3.593 0,2.933 -2.379,5.311 -5.314,5.311 -2.934,0 -5.312,-2.378 -5.312,-5.311 0,-1.387 0.53,-2.647 1.399,-3.593 h -5.14 c -0.442,1.11 -0.684,2.323 -0.684,3.593 C -9.737,-4.359 -5.378,0 0,0"
         style="fill:#7f7e86;fill-opacity:1;fill-rule:evenodd;stroke:none"
         transform="matrix(1.3333333,0,0,-1.3333333,653.92573,782.22653)"
         clip-path="url(#clipPath96)" />
      <path
         id="path97"
         d="M 0,0 H 0.001 C 1.089,0 1.98,-0.891 1.98,-1.98 v -15.533 c 0,-1.088 -0.891,-1.978 -1.979,-1.978 H 0 c -1.089,0 -1.979,0.89 -1.979,1.978 V -1.98 C -1.979,-0.891 -1.089,0 0,0"
         style="fill:#bcb8c2;fill-opacity:1;fill-rule:evenodd;stroke:none"
         transform="matrix(1.3333333,0,0,-1.3333333,653.92573,765.89067)"
         clip-path="url(#clipPath98)" />
      <path
         id="path99"
         d="M 0,0 V 0 C 0.56,0 1.018,-0.458 1.018,-1.019 V -1.403 C 2.776,-0.951 4.074,0.643 4.074,2.54 4.074,2.669 4.066,2.798 4.056,2.922 2.726,2.762 1.372,2.678 0,2.678 c -1.374,0 -2.728,0.084 -4.057,0.244 -0.011,-0.124 -0.018,-0.251 -0.018,-0.382 0,-1.897 1.298,-3.491 3.055,-3.943 v 0.384 C -1.02,-0.458 -0.561,0 0,0 m 0,-12.563 v 0 c 0.56,0 1.018,-0.458 1.018,-1.019 v -0.282 c 1.006,0.404 1.717,1.388 1.717,2.54 0,1.15 -0.711,2.135 -1.717,2.54 v -0.234 c 0,-0.561 -0.458,-1.019 -1.018,-1.019 -0.561,0 -1.02,0.458 -1.02,1.019 v 0.234 c -1.007,-0.405 -1.716,-1.39 -1.716,-2.54 0,-1.152 0.709,-2.136 1.716,-2.54 v 0.282 c 0,0.561 0.459,1.019 1.02,1.019 m 0,-12.58 v 0 c 0.56,0 1.018,-0.458 1.018,-1.019 v -0.265 c 1.006,0.404 1.717,1.389 1.717,2.54 0,1.151 -0.711,2.136 -1.717,2.54 v -0.235 c 0,-0.56 -0.458,-1.02 -1.018,-1.02 -0.561,0 -1.02,0.46 -1.02,1.02 v 0.235 c -1.007,-0.404 -1.716,-1.389 -1.716,-2.54 0,-1.151 0.709,-2.136 1.716,-2.54 v 0.265 c 0,0.561 0.459,1.019 1.02,1.019 m 0,-12.564 v 0 c 0.56,0 1.018,-0.458 1.018,-1.02 v -0.281 c 1.006,0.404 1.717,1.389 1.717,2.54 0,1.152 -0.711,2.136 -1.717,2.54 v -0.235 c 0,-0.56 -0.458,-1.019 -1.018,-1.019 -0.561,0 -1.02,0.459 -1.02,1.019 v 0.235 c -1.007,-0.404 -1.716,-1.388 -1.716,-2.54 0,-1.151 0.709,-2.136 1.716,-2.54 v 0.281 c 0,0.562 0.459,1.02 1.02,1.02 M -195.708,0 v 0 c 0.562,0 1.02,-0.458 1.02,-1.019 v -0.384 c 1.755,0.452 3.053,2.046 3.053,3.943 0,0.129 -0.006,0.258 -0.018,0.382 -1.329,-0.16 -2.682,-0.244 -4.055,-0.244 -1.374,0 -2.727,0.084 -4.056,0.244 -0.011,-0.124 -0.018,-0.253 -0.018,-0.382 0,-1.897 1.298,-3.491 3.055,-3.943 v 0.384 c 0,0.561 0.457,1.019 1.019,1.019 m 0,-12.563 v 0 c 0.562,0 1.02,-0.458 1.02,-1.019 v -0.282 c 1.006,0.404 1.716,1.388 1.716,2.54 0,1.15 -0.71,2.135 -1.716,2.54 v -0.234 c 0,-0.561 -0.458,-1.019 -1.02,-1.019 -0.562,0 -1.019,0.458 -1.019,1.019 v 0.234 c -1.007,-0.405 -1.717,-1.39 -1.717,-2.54 0,-1.152 0.71,-2.136 1.717,-2.54 v 0.282 c 0,0.561 0.457,1.019 1.019,1.019 m 0,-12.58 v 0 c 0.562,0 1.02,-0.458 1.02,-1.019 v -0.265 c 1.006,0.404 1.716,1.389 1.716,2.54 0,1.151 -0.71,2.136 -1.716,2.54 v -0.235 c 0,-0.56 -0.458,-1.02 -1.02,-1.02 -0.562,0 -1.019,0.46 -1.019,1.02 v 0.235 c -1.007,-0.404 -1.717,-1.389 -1.717,-2.54 0,-1.151 0.71,-2.136 1.717,-2.54 v 0.265 c 0,0.561 0.457,1.019 1.019,1.019 m 1.02,-16.236 v -2.74 c 1.915,-0.396 3.43,-1.884 3.867,-3.781 h -2.394 c -0.29,0.638 -0.82,1.146 -1.473,1.41 v -0.236 c 0,-0.561 -0.458,-1.019 -1.02,-1.019 -0.562,0 -1.019,0.458 -1.019,1.019 v 0.236 c -0.655,-0.264 -1.184,-0.772 -1.474,-1.41 h -2.394 c 0.437,1.899 1.952,3.385 3.868,3.781 v 2.74 c -2.281,0.47 -3.996,2.491 -3.996,4.911 0,2.42 1.715,4.44 3.996,4.911 v 2.759 c -2.281,0.471 -3.996,2.49 -3.996,4.911 0,2.42 1.715,4.441 3.996,4.91 v 2.742 c -2.281,0.471 -3.996,2.49 -3.996,4.911 0,2.42 1.715,4.44 3.996,4.911 v 1.558 c -3.641,0.497 -6.446,3.619 -6.446,7.395 0,0.325 0.021,0.646 0.061,0.96 -0.898,0.203 -1.783,0.441 -2.651,0.714 l -4.249,-7.362 c -2.134,-3.694 -14.739,3.584 -12.606,7.278 l 4.254,7.369 c -4.962,4.558 -8.547,10.593 -10.056,17.407 h -8.502 c -4.267,0 -4.267,14.556 0,14.556 h 8.502 c 1.509,6.814 5.094,12.849 10.056,17.407 l -4.254,7.369 c -2.133,3.696 10.472,10.972 12.606,7.278 l 4.249,-7.362 c 3.174,0.997 6.552,1.536 10.055,1.536 3.503,0 6.881,-0.539 10.055,-1.536 l 4.249,7.362 c 2.134,3.694 14.739,-3.582 12.605,-7.278 l -4.254,-7.369 c 4.963,-4.556 8.547,-10.593 10.057,-17.407 h 8.503 c 4.266,0 4.266,-14.556 0,-14.556 h -8.503 c -1.51,-6.814 -5.094,-12.849 -10.057,-17.407 l 4.254,-7.369 c 2.134,-3.694 -10.471,-10.972 -12.605,-7.278 l -4.249,7.362 c -0.869,-0.273 -1.753,-0.511 -2.651,-0.714 0.04,-0.314 0.061,-0.635 0.061,-0.96 0,-3.776 -2.805,-6.898 -6.445,-7.395 v -1.558 c 2.28,-0.472 3.995,-2.491 3.995,-4.911 0,-2.421 -1.715,-4.44 -3.995,-4.911 v -2.742 c 2.28,-0.47 3.995,-2.49 3.995,-4.91 0,-2.421 -1.715,-4.44 -3.995,-4.911 v -2.759 c 2.28,-0.471 3.995,-2.491 3.995,-4.911 0,-2.42 -1.715,-4.439 -3.995,-4.911 m -1.02,3.672 v 0 c 0.562,0 1.02,-0.458 1.02,-1.02 v -0.281 c 1.006,0.404 1.716,1.389 1.716,2.54 0,1.152 -0.71,2.136 -1.716,2.54 v -0.235 c 0,-0.56 -0.458,-1.019 -1.02,-1.019 -0.562,0 -1.019,0.459 -1.019,1.019 v 0.235 c -1.007,-0.404 -1.717,-1.388 -1.717,-2.54 0,-1.151 0.71,-2.136 1.717,-2.54 v 0.281 c 0,0.562 0.457,1.02 1.019,1.02 M 7.404,3.501 C 7.444,3.188 7.466,2.865 7.466,2.54 c 0,-3.776 -2.807,-6.898 -6.448,-7.395 v -1.558 c 2.282,-0.471 3.996,-2.491 3.996,-4.911 0,-2.421 -1.714,-4.44 -3.996,-4.911 v -2.742 c 2.282,-0.469 3.996,-2.49 3.996,-4.91 0,-2.421 -1.714,-4.44 -3.996,-4.911 v -2.759 c 2.282,-0.471 3.996,-2.491 3.996,-4.911 0,-2.42 -1.714,-4.441 -3.996,-4.911 v -2.74 c 1.916,-0.396 3.431,-1.882 3.869,-3.781 H 2.492 c -0.291,0.638 -0.819,1.146 -1.474,1.41 v -0.236 c 0,-0.561 -0.458,-1.019 -1.018,-1.019 -0.561,0 -1.02,0.458 -1.02,1.019 v 0.236 c -0.654,-0.264 -1.184,-0.772 -1.474,-1.41 h -2.394 c 0.438,1.897 1.953,3.385 3.868,3.781 v 2.74 c -2.281,0.472 -3.997,2.491 -3.997,4.911 0,2.42 1.716,4.44 3.997,4.911 v 2.759 c -2.281,0.471 -3.997,2.49 -3.997,4.911 0,2.42 1.716,4.44 3.997,4.91 v 2.742 c -2.281,0.471 -3.997,2.49 -3.997,4.911 0,2.42 1.716,4.439 3.997,4.911 v 1.558 c -3.641,0.497 -6.447,3.619 -6.447,7.395 0,0.325 0.022,0.646 0.062,0.96 -0.897,0.203 -1.781,0.441 -2.651,0.714 l -4.25,-7.362 C -16.439,-6.842 -29.045,0.436 -26.91,4.13 l 4.254,7.369 c -4.963,4.558 -8.547,10.593 -10.056,17.407 h -8.503 c -4.267,0 -4.267,14.556 0,14.556 h 8.503 c 1.509,6.814 5.094,12.849 10.056,17.407 l -4.254,7.369 c -2.135,3.696 10.471,10.972 12.604,7.278 l 4.25,-7.362 c 3.175,0.999 6.551,1.536 10.056,1.536 3.502,0 6.88,-0.537 10.054,-1.536 l 4.249,7.362 c 2.132,3.694 14.739,-3.582 12.606,-7.278 L 22.655,60.869 C 27.617,56.311 31.2,50.276 32.711,43.462 h 8.502 c 4.267,0 4.267,-14.556 0,-14.556 H 32.711 C 31.2,22.092 27.617,16.059 22.655,11.5 L 26.909,4.13 C 29.042,0.436 16.435,-6.842 14.303,-3.148 L 10.054,4.214 C 9.185,3.941 8.301,3.703 7.404,3.501"
         style="fill:#c3cdd4;fill-opacity:1;fill-rule:evenodd;stroke:none"
         transform="matrix(1.3333333,0,0,-1.3333333,531.056,736.1328)"
         clip-path="url(#clipPath100)" />
    </g>
  </g>
</svg>
